<svg xmlns="http://www.w3.org/2000/svg" version="1.1" xmlns:xlink="http://www.w3.org/1999/xlink" xmlns:svgjs="http://svgjs.dev/svgjs" width="1000" height="623" viewBox="0 0 1000 623"><g transform="matrix(1,0,0,1,-0.6060606060606233,0.2522267206477409)"><svg viewBox="0 0 396 247" data-background-color="#89939e" preserveAspectRatio="xMidYMid meet" height="623" width="1000" xmlns="http://www.w3.org/2000/svg" xmlns:xlink="http://www.w3.org/1999/xlink"><g id="tight-bounds" transform="matrix(1,0,0,1,0.2400000000000091,-0.09999999999999432)"><svg viewBox="0 0 395.52 247.2" height="247.2" width="395.52"><rect width="395.52" height="247.2" fill="#ffffff" mask="url(&quot;#1438ca94-95c7-44b6-97a9-a9a85fa1ce4f&quot;)" data-fill-palette-color="accent"></rect><rect width="395.52" height="247.2" fill="#ffffff" mask="url(&quot;#99777f0e-eefb-432d-bf1f-ef894c3ac4fb&quot;)" data-fill-palette-color="primary"></rect><g><svg></svg></g><g><svg viewBox="0 0 395.52 247.2" height="247.2" width="395.52"><g transform="matrix(1,0,0,1,115.06995199999999,65.92)"><svg viewBox="0 0 165.380096 115.35999999999999" height="115.35999999999999" width="165.380096"><g><svg viewBox="0 0 165.380096 115.35999999999999" height="115.35999999999999" width="165.380096"><g><svg viewBox="0 0 165.380096 115.35999999999999" height="115.35999999999999" width="165.380096"><g><svg viewBox="0 0 165.380096 115.35999999999999" height="115.35999999999999" width="165.380096"><g id="textblocktransform"><svg viewBox="0 0 165.380096 115.35999999999999" height="115.35999999999999" width="165.380096" id="textblock"><g><svg viewBox="0 0 165.380096 115.35999999999999" height="115.35999999999999" width="165.380096"><g transform="matrix(1,0,0,1,0,0)"><svg width="165.380096" viewBox="-3.2 -41.95 90.60000000000001 63.50000000000001" height="115.35999999999999" data-palette-color="url(#9735f538-9f75-4e47-9b10-a2c2cb00d23b)"></svg></g></svg></g></svg></g></svg></g><g></g></svg></g></svg></g></svg></g><g mask="url(&quot;#f7e27fb7-3457-4f68-bbe6-26630c95e9c8&quot;)"><g transform="matrix(7.3819845857418125, 0, 0, 7.3819845857418125, 21.976492052023076, 1)"><svg xmlns="http://www.w3.org/2000/svg" xmlns:xlink="http://www.w3.org/1999/xlink" version="1.1" x="0" y="0" viewBox="1.012 8.212 47.625 33.215999999999994" enable-background="new 0 0 50 50" xml:space="preserve" height="33.215999999999994" width="47.625" class="icon-none" data-fill-palette-color="accent" id="none"></svg></g></g><mask id="f7e27fb7-3457-4f68-bbe6-26630c95e9c8"><rect width="640" height="400" fill="white"></rect><g transform="matrix(1,0,0,1,115.06995199999999,65.92)"><svg viewBox="0 0 165.380096 115.35999999999999" height="115.35999999999999" width="165.380096"><g><svg viewBox="0 0 165.380096 115.35999999999999" height="115.35999999999999" width="165.380096"><g><svg viewBox="0 0 165.380096 115.35999999999999" height="115.35999999999999" width="165.380096"><g><svg viewBox="0 0 165.380096 115.35999999999999" height="115.35999999999999" width="165.380096"><g id="SvgjsG1048"><svg viewBox="0 0 165.380096 115.35999999999999" height="115.35999999999999" width="165.380096" id="SvgjsSvg1047"><g><svg viewBox="0 0 165.380096 115.35999999999999" height="115.35999999999999" width="165.380096"><g transform="matrix(1,0,0,1,0,0)"><svg width="165.380096" viewBox="-3.2 -41.95 90.60000000000001 63.50000000000001" height="115.35999999999999" data-palette-color="url(#9735f538-9f75-4e47-9b10-a2c2cb00d23b)"><path d="M24.55-7.7L24.55-7.7Q24.55-6.4 25.88-6.4 27.2-6.4 28.1-6.9L28.1-6.9 27.85-1.25Q25.45 0.7 22.45 0.7L22.45 0.7Q16.95 0.7 16.35-3.3L16.35-3.3Q13.85 0.7 9 0.7L9 0.7Q0.8 0.7 0.8-6.35L0.8-6.35Q0.8-7.55 1.05-9L1.05-9 2.1-14.85Q2.9-19.35 5.78-22.03 8.65-24.7 13.28-24.7 17.9-24.7 19.55-22.55L19.55-22.55 19.8-24.05 27.4-24.05 24.6-8.3Q24.55-8 24.55-7.7ZM10.4-13.85L9.75-10.1Q9.65-9.65 9.65-8.85 9.65-8.05 10.4-7.28 11.15-6.5 12.93-6.5 14.7-6.5 16-7.9L16-7.9 17.5-16.3Q16.95-17.55 14.9-17.55L14.9-17.55Q11.05-17.55 10.4-13.85L10.4-13.85ZM52.9 0.9L52.9 0.9Q52.9 8.2 49.17 12.88 45.45 17.55 39.07 17.55 32.7 17.55 30.6 14.4L30.6 14.4Q29.3 12.4 29.3 9.53 29.3 6.65 29.8 3.8L29.8 3.8 36.2-32.4 44.7-32.4 43.2-24.05 55.65-24.05 54.4-17 44.6-17Q48.15-14.15 50.52-9.6 52.9-5.05 52.9 0.9ZM40.35 10.4Q41.9 10.4 43 7.9 44.1 5.4 44.1 1.33 44.1-2.75 43.27-6.9 42.45-11.05 41.3-13.4L41.3-13.4 38.3 3.75Q38 5.5 38 6.8L38 6.8Q38 10.4 40.35 10.4L40.35 10.4ZM81.09-6.4L81.09-6.4Q82.25-6.4 83.15-6.9L83.15-6.9 82.9-1.25Q80.55 0.7 77.15 0.7 73.75 0.7 72.12-1.1 70.5-2.9 69.59-7.15L69.59-7.15 69.45-7.85Q68.4-7.7 66.3-7.6L66.3-7.6 64.95 0 56.45 0 63.15-37.95 71.65-37.95 68.75-21.5Q71.7-24.75 76.75-24.75L76.75-24.75Q80.15-24.75 81.77-23.08 83.4-21.4 83.4-18.6L83.4-18.6Q83.4-13.2 77.75-10.15L77.75-10.15 78.3-8.3Q78.84-6.4 81.09-6.4ZM72.45-17.95L72.45-17.95Q69.75-17.95 67.65-15.4L67.65-15.4 67.09-12.1Q74.5-12.4 74.5-16.05L74.5-16.05Q74.5-16.9 73.97-17.43 73.45-17.95 72.45-17.95Z" opacity="1" transform="matrix(1,0,0,1,0,0)" fill="#ffffff" class="undefined-text-0" data-fill-palette-color="primary" id="SvgjsPath1046" stroke-width="7" stroke="black" stroke-linejoin="round"></path></svg></g></svg></g></svg></g></svg></g><g></g></svg></g></svg></g></svg></g></mask></svg></g><defs></defs><mask id="99777f0e-eefb-432d-bf1f-ef894c3ac4fb"><g id="SvgjsG1057"><svg viewBox="0 0 395.52 247.2" height="247.2" width="395.52"><g><svg></svg></g><g><svg viewBox="0 0 395.52 247.2" height="247.2" width="395.52"><g transform="matrix(1,0,0,1,115.06995199999999,65.92)"><svg viewBox="0 0 165.380096 115.35999999999999" height="115.35999999999999" width="165.380096"><g><svg viewBox="0 0 165.380096 115.35999999999999" height="115.35999999999999" width="165.380096"><g><svg viewBox="0 0 165.380096 115.35999999999999" height="115.35999999999999" width="165.380096"><g><svg viewBox="0 0 165.380096 115.35999999999999" height="115.35999999999999" width="165.380096"><g id="SvgjsG1056"><svg viewBox="0 0 165.380096 115.35999999999999" height="115.35999999999999" width="165.380096" id="SvgjsSvg1055"><g><svg viewBox="0 0 165.380096 115.35999999999999" height="115.35999999999999" width="165.380096"><g transform="matrix(1,0,0,1,0,0)"><svg width="165.380096" viewBox="-3.2 -41.95 90.60000000000001 63.50000000000001" height="115.35999999999999" data-palette-color="url(#9735f538-9f75-4e47-9b10-a2c2cb00d23b)"><path d="M24.55-7.7L24.55-7.7Q24.55-6.4 25.88-6.4 27.2-6.4 28.1-6.9L28.1-6.9 27.85-1.25Q25.45 0.7 22.45 0.7L22.45 0.7Q16.95 0.7 16.35-3.3L16.35-3.3Q13.85 0.7 9 0.7L9 0.7Q0.8 0.7 0.8-6.35L0.8-6.35Q0.8-7.55 1.05-9L1.05-9 2.1-14.85Q2.9-19.35 5.78-22.03 8.65-24.7 13.28-24.7 17.9-24.7 19.55-22.55L19.55-22.55 19.8-24.05 27.4-24.05 24.6-8.3Q24.55-8 24.55-7.7ZM10.4-13.85L9.75-10.1Q9.65-9.65 9.65-8.85 9.65-8.05 10.4-7.28 11.15-6.5 12.93-6.5 14.7-6.5 16-7.9L16-7.9 17.5-16.3Q16.95-17.55 14.9-17.55L14.9-17.55Q11.05-17.55 10.4-13.85L10.4-13.85ZM52.9 0.9L52.9 0.9Q52.9 8.2 49.17 12.88 45.45 17.55 39.07 17.55 32.7 17.55 30.6 14.4L30.6 14.4Q29.3 12.4 29.3 9.53 29.3 6.65 29.8 3.8L29.8 3.8 36.2-32.4 44.7-32.4 43.2-24.05 55.65-24.05 54.4-17 44.6-17Q48.15-14.15 50.52-9.6 52.9-5.05 52.9 0.9ZM40.35 10.4Q41.9 10.4 43 7.9 44.1 5.4 44.1 1.33 44.1-2.75 43.27-6.9 42.45-11.05 41.3-13.4L41.3-13.4 38.3 3.75Q38 5.5 38 6.8L38 6.8Q38 10.4 40.35 10.4L40.35 10.4ZM81.09-6.4L81.09-6.4Q82.25-6.4 83.15-6.9L83.15-6.9 82.9-1.25Q80.55 0.7 77.15 0.7 73.75 0.7 72.12-1.1 70.5-2.9 69.59-7.15L69.59-7.15 69.45-7.85Q68.4-7.7 66.3-7.6L66.3-7.6 64.95 0 56.45 0 63.15-37.95 71.65-37.95 68.75-21.5Q71.7-24.75 76.75-24.75L76.75-24.75Q80.15-24.75 81.77-23.08 83.4-21.4 83.4-18.6L83.4-18.6Q83.4-13.2 77.75-10.15L77.75-10.15 78.3-8.3Q78.84-6.4 81.09-6.4ZM72.45-17.95L72.45-17.95Q69.75-17.95 67.65-15.4L67.65-15.4 67.09-12.1Q74.5-12.4 74.5-16.05L74.5-16.05Q74.5-16.9 73.97-17.43 73.45-17.95 72.45-17.95Z" opacity="1" transform="matrix(1,0,0,1,0,0)" fill="white" class="undefined-text-0" id="SvgjsPath1054"></path></svg></g></svg></g></svg></g></svg></g><g></g></svg></g></svg></g></svg></g><g mask="url(&quot;#f7e27fb7-3457-4f68-bbe6-26630c95e9c8&quot;)"><g transform="matrix(7.3819845857418125, 0, 0, 7.3819845857418125, 21.976492052023076, 1)"><svg xmlns="http://www.w3.org/2000/svg" xmlns:xlink="http://www.w3.org/1999/xlink" version="1.1" x="0" y="0" viewBox="1.012 8.212 47.625 33.215999999999994" enable-background="new 0 0 50 50" xml:space="preserve" height="33.215999999999994" width="47.625" class="icon-none" data-fill-palette-color="accent" id="SvgjsSvg1053"></svg></g></g><mask id="SvgjsMask1052"><g transform="matrix(1,0,0,1,115.06995199999999,65.92)"><svg viewBox="0 0 165.380096 115.35999999999999" height="115.35999999999999" width="165.380096"><g><svg viewBox="0 0 165.380096 115.35999999999999" height="115.35999999999999" width="165.380096"><g><svg viewBox="0 0 165.380096 115.35999999999999" height="115.35999999999999" width="165.380096"><g><svg viewBox="0 0 165.380096 115.35999999999999" height="115.35999999999999" width="165.380096"><g id="SvgjsG1051"><svg viewBox="0 0 165.380096 115.35999999999999" height="115.35999999999999" width="165.380096" id="SvgjsSvg1050"><g><svg viewBox="0 0 165.380096 115.35999999999999" height="115.35999999999999" width="165.380096"><g transform="matrix(1,0,0,1,0,0)"><svg width="165.380096" viewBox="-3.2 -41.95 90.60000000000001 63.50000000000001" height="115.35999999999999" data-palette-color="url(#9735f538-9f75-4e47-9b10-a2c2cb00d23b)"><path d="M24.55-7.7L24.55-7.7Q24.55-6.4 25.88-6.4 27.2-6.4 28.1-6.9L28.1-6.9 27.85-1.25Q25.45 0.7 22.45 0.7L22.45 0.7Q16.95 0.7 16.35-3.3L16.35-3.3Q13.85 0.7 9 0.7L9 0.7Q0.8 0.7 0.8-6.35L0.8-6.35Q0.8-7.55 1.05-9L1.05-9 2.1-14.85Q2.9-19.35 5.78-22.03 8.65-24.7 13.28-24.7 17.9-24.7 19.55-22.55L19.55-22.55 19.8-24.05 27.4-24.05 24.6-8.3Q24.55-8 24.55-7.7ZM10.4-13.85L9.75-10.1Q9.65-9.65 9.65-8.85 9.65-8.05 10.4-7.28 11.15-6.5 12.93-6.5 14.7-6.5 16-7.9L16-7.9 17.5-16.3Q16.95-17.55 14.9-17.55L14.9-17.55Q11.05-17.55 10.4-13.85L10.4-13.85ZM52.9 0.9L52.9 0.9Q52.9 8.2 49.17 12.88 45.45 17.55 39.07 17.55 32.7 17.55 30.6 14.4L30.6 14.4Q29.3 12.4 29.3 9.53 29.3 6.65 29.8 3.8L29.8 3.8 36.2-32.4 44.7-32.4 43.2-24.05 55.65-24.05 54.4-17 44.6-17Q48.15-14.15 50.52-9.6 52.9-5.05 52.9 0.9ZM40.35 10.4Q41.9 10.4 43 7.9 44.1 5.4 44.1 1.33 44.1-2.75 43.27-6.9 42.45-11.05 41.3-13.4L41.3-13.4 38.3 3.75Q38 5.5 38 6.8L38 6.8Q38 10.4 40.35 10.4L40.35 10.4ZM81.09-6.4L81.09-6.4Q82.25-6.4 83.15-6.9L83.15-6.9 82.9-1.25Q80.55 0.7 77.15 0.7 73.75 0.7 72.12-1.1 70.5-2.9 69.59-7.15L69.59-7.15 69.45-7.85Q68.4-7.7 66.3-7.6L66.3-7.6 64.95 0 56.45 0 63.15-37.95 71.65-37.95 68.75-21.5Q71.7-24.75 76.75-24.75L76.75-24.75Q80.15-24.75 81.77-23.08 83.4-21.4 83.4-18.6L83.4-18.6Q83.4-13.2 77.75-10.15L77.75-10.15 78.3-8.3Q78.84-6.4 81.09-6.4ZM72.45-17.95L72.45-17.95Q69.75-17.95 67.65-15.4L67.65-15.4 67.09-12.1Q74.5-12.4 74.5-16.05L74.5-16.05Q74.5-16.9 73.97-17.43 73.45-17.95 72.45-17.95Z" opacity="1" transform="matrix(1,0,0,1,0,0)" fill="white" class="undefined-text-0" id="SvgjsPath1049" stroke-width="7" stroke="black" stroke-linejoin="round"></path></svg></g></svg></g></svg></g></svg></g><g></g></svg></g></svg></g></svg></g></mask></svg></g><defs><mask></mask></defs></svg></g></mask><linearGradient x1="0" x2="1" y1="0.5" y2="0.5" id="9735f538-9f75-4e47-9b10-a2c2cb00d23b"><stop stop-color="#f00b51" offset="0"></stop><stop stop-color="#730062" offset="1"></stop></linearGradient><mask id="1438ca94-95c7-44b6-97a9-a9a85fa1ce4f"><g id="SvgjsG1074"><svg viewBox="0 0 395.52 247.2" height="247.2" width="395.52"><g><svg></svg></g><g><svg viewBox="0 0 395.52 247.2" height="247.2" width="395.52"><g transform="matrix(1,0,0,1,115.06995199999999,65.92)"><svg viewBox="0 0 165.380096 115.35999999999999" height="115.35999999999999" width="165.380096"><g><svg viewBox="0 0 165.380096 115.35999999999999" height="115.35999999999999" width="165.380096"><g><svg viewBox="0 0 165.380096 115.35999999999999" height="115.35999999999999" width="165.380096"><g><svg viewBox="0 0 165.380096 115.35999999999999" height="115.35999999999999" width="165.380096"><g id="SvgjsG1073"><svg viewBox="0 0 165.380096 115.35999999999999" height="115.35999999999999" width="165.380096" id="SvgjsSvg1072"><g><svg viewBox="0 0 165.380096 115.35999999999999" height="115.35999999999999" width="165.380096"><g transform="matrix(1,0,0,1,0,0)"><svg width="165.380096" viewBox="-3.2 -41.95 90.60000000000001 63.50000000000001" height="115.35999999999999" data-palette-color="url(#9735f538-9f75-4e47-9b10-a2c2cb00d23b)"></svg></g></svg></g></svg></g></svg></g><g></g></svg></g></svg></g></svg></g><g mask="url(&quot;#f7e27fb7-3457-4f68-bbe6-26630c95e9c8&quot;)"><g transform="matrix(7.3819845857418125, 0, 0, 7.3819845857418125, 21.976492052023076, 1)"><svg xmlns="http://www.w3.org/2000/svg" xmlns:xlink="http://www.w3.org/1999/xlink" version="1.1" x="0" y="0" viewBox="1.012 8.212 47.625 33.215999999999994" enable-background="new 0 0 50 50" xml:space="preserve" height="33.215999999999994" width="47.625" class="icon-none" data-fill-palette-color="accent" id="SvgjsSvg1071"><g fill="white"><polygon fill="white" points="19.937,10.508 17.653,8.212 1.012,24.792 17.647,41.428 19.94,39.135 5.603,24.794  "></polygon><polygon fill="white" points="29.714,10.508 44.046,24.794 29.711,39.135 32.004,41.428 48.637,24.792 32.001,8.212  "></polygon></g></svg></g></g><mask id="SvgjsMask1070"><g transform="matrix(1,0,0,1,115.06995199999999,65.92)"><svg viewBox="0 0 165.380096 115.35999999999999" height="115.35999999999999" width="165.380096"><g><svg viewBox="0 0 165.380096 115.35999999999999" height="115.35999999999999" width="165.380096"><g><svg viewBox="0 0 165.380096 115.35999999999999" height="115.35999999999999" width="165.380096"><g><svg viewBox="0 0 165.380096 115.35999999999999" height="115.35999999999999" width="165.380096"><g id="SvgjsG1069"><svg viewBox="0 0 165.380096 115.35999999999999" height="115.35999999999999" width="165.380096" id="SvgjsSvg1068"><g><svg viewBox="0 0 165.380096 115.35999999999999" height="115.35999999999999" width="165.380096"><g transform="matrix(1,0,0,1,0,0)"><svg width="165.380096" viewBox="-3.2 -41.95 90.60000000000001 63.50000000000001" height="115.35999999999999" data-palette-color="url(#9735f538-9f75-4e47-9b10-a2c2cb00d23b)"></svg></g></svg></g></svg></g></svg></g><g></g></svg></g></svg></g></svg></g></mask></svg></g><defs><mask></mask></defs><mask><g id="SvgjsG1066"><svg viewBox="0 0 395.52 247.2" height="247.2" width="395.52"><g><svg></svg></g><g><svg viewBox="0 0 395.52 247.2" height="247.2" width="395.52"><g transform="matrix(1,0,0,1,115.06995199999999,65.92)"><svg viewBox="0 0 165.380096 115.35999999999999" height="115.35999999999999" width="165.380096"><g><svg viewBox="0 0 165.380096 115.35999999999999" height="115.35999999999999" width="165.380096"><g><svg viewBox="0 0 165.380096 115.35999999999999" height="115.35999999999999" width="165.380096"><g><svg viewBox="0 0 165.380096 115.35999999999999" height="115.35999999999999" width="165.380096"><g id="SvgjsG1065"><svg viewBox="0 0 165.380096 115.35999999999999" height="115.35999999999999" width="165.380096" id="SvgjsSvg1064"><g><svg viewBox="0 0 165.380096 115.35999999999999" height="115.35999999999999" width="165.380096"><g transform="matrix(1,0,0,1,0,0)"><svg width="165.380096" viewBox="-3.2 -41.95 90.60000000000001 63.50000000000001" height="115.35999999999999" data-palette-color="url(#9735f538-9f75-4e47-9b10-a2c2cb00d23b)"></svg></g></svg></g></svg></g></svg></g><g></g></svg></g></svg></g></svg></g><g mask="url(&quot;#f7e27fb7-3457-4f68-bbe6-26630c95e9c8&quot;)"><g transform="matrix(7.3819845857418125, 0, 0, 7.3819845857418125, 21.976492052023076, 1)"><svg xmlns="http://www.w3.org/2000/svg" xmlns:xlink="http://www.w3.org/1999/xlink" version="1.1" x="0" y="0" viewBox="1.012 8.212 47.625 33.215999999999994" enable-background="new 0 0 50 50" xml:space="preserve" height="33.215999999999994" width="47.625" class="icon-none" data-fill-palette-color="accent" id="SvgjsSvg1062"></svg></g></g><mask id="SvgjsMask1061"><g transform="matrix(1,0,0,1,115.06995199999999,65.92)"><svg viewBox="0 0 165.380096 115.35999999999999" height="115.35999999999999" width="165.380096"><g><svg viewBox="0 0 165.380096 115.35999999999999" height="115.35999999999999" width="165.380096"><g><svg viewBox="0 0 165.380096 115.35999999999999" height="115.35999999999999" width="165.380096"><g><svg viewBox="0 0 165.380096 115.35999999999999" height="115.35999999999999" width="165.380096"><g id="SvgjsG1060"><svg viewBox="0 0 165.380096 115.35999999999999" height="115.35999999999999" width="165.380096" id="SvgjsSvg1059"><g><svg viewBox="0 0 165.380096 115.35999999999999" height="115.35999999999999" width="165.380096"><g transform="matrix(1,0,0,1,0,0)"><svg width="165.380096" viewBox="-3.2 -41.95 90.60000000000001 63.50000000000001" height="115.35999999999999" data-palette-color="url(#9735f538-9f75-4e47-9b10-a2c2cb00d23b)"></svg></g></svg></g></svg></g></svg></g><g></g></svg></g></svg></g></svg></g></mask></svg></g><defs><mask></mask></defs></svg></g></mask></svg></g></mask><linearGradient x1="0" x2="1" y1="0.5" y2="0.5" id="3f9db54d-24ff-47e4-b54a-6e5e6542759b"><stop stop-color="#f00b51" offset="0"></stop><stop stop-color="#730062" offset="1"></stop></linearGradient></svg><rect width="395.52" height="247.2" fill="none" stroke="none" visibility="hidden"></rect></g></svg></g></svg>